<?xml version="1.0" encoding="utf-8"?>
<!-- Generator: Adobe Illustrator 20.0.0, SVG Export Plug-In . SVG Version: 6.00 Build 0)  -->
<svg version="1.1" id="Layer_1" xmlns="http://www.w3.org/2000/svg" xmlns:xlink="http://www.w3.org/1999/xlink" x="0px" y="0px"
	 viewBox="0 0 379 86" style="enable-background:new 0 0 379 86;" xml:space="preserve">
<style type="text/css">
	.st0{fill:url(#SVGID_1_);}
	.st1{fill:url(#SVGID_2_);}
</style>
<linearGradient id="SVGID_1_" gradientUnits="userSpaceOnUse" x1="84.5634" y1="27.0465" x2="-9.525" y2="85.4597">
	<stop  offset="0.1577" style="stop-color:#33C6F4"/>
	<stop  offset="1" style="stop-color:#3B55A5"/>
</linearGradient>
<path class="st0" d="M75.8,75.5c0,1.2-0.9,2.1-2.1,2.1h-3.3l-0.1,0.1c-1.1,2.5-3.6,4.2-6.3,4.2H26.3c-2.8,0-5.3-1.7-6.3-4.2
	l-0.1-0.1h-3.3c-1.2,0-2.1-0.9-2.1-2.1c0-1.2,0.9-2.1,2.1-2.1h57.1C74.9,73.4,75.8,74.3,75.8,75.5z M8,59.6
	C4.2,54,4.5,47.2,8.5,44.5c2.6-1.7,6-1.5,9.2,0.4c0.2-3.2,0.8-5.3,0.8-5.3h54.6c4.6,17.3-6.2,29.1-6.2,29.1v2.5H25.4v-2.5
	c-1.2-1.2-2.3-2.5-3.2-3.8C18.1,67.5,11.8,65.2,8,59.6z M19.9,61.2c0.1-0.1,0.2-0.1,0.3-0.2c-1.9-4.2-2.5-8.6-2.6-12.4
	c-2.2-1.6-4.8-1.9-6.7-0.7c-2.7,1.8-2.8,6.2-0.4,9.9C13,61.5,17.2,63,19.9,61.2z M49.1,25.9c0.9,0.9,1.9,1.9,2.5,3
	c0.7,1.3,1.1,3.1,0.1,4.4c-0.2,0.2-0.2,0.3-0.2,0.3s0.2,0,0.4,0c2.3,0.2,3.9-3,4.1-4.8c0.2-2.1-0.5-4.3-1.5-6.2
	c-1-1.9-2.4-3.6-3.5-5.4c-1.1-1.8-2.1-3.9-2.2-6c-0.1-2.1,0.7-4.3,1.7-6.1c0.1-0.2,0.2-0.4,0.2-0.4s-0.1,0-0.4,0
	c-2.9,0.3-5.4,2.8-6.5,5.3c-1.1,2.6-1,5.6-0.1,8.2C44.8,21.3,46.9,23.7,49.1,25.9z M38,28.6c0.6,0.6,1.2,1.2,1.7,2
	c0.5,0.9,0.7,2.1,0.1,2.9c-0.1,0.1-0.2,0.2-0.2,0.2s0.1,0,0.3,0c1.5,0.1,2.6-2,2.7-3.2c0.2-1.4-0.3-2.8-1-4.1
	c-0.7-1.2-1.6-2.4-2.3-3.6c-0.8-1.2-1.4-2.6-1.4-4c-0.1-1.4,0.4-2.8,1.1-4.1c0.1-0.2,0.1-0.2,0.1-0.2s-0.1,0-0.3,0
	c-1.9,0.2-3.6,1.9-4.3,3.5c-0.7,1.7-0.7,3.7,0,5.4C35.1,25.5,36.5,27.1,38,28.6z"/>
<linearGradient id="SVGID_2_" gradientUnits="userSpaceOnUse" x1="412.1133" y1="-7.6152" x2="-138.8867" y2="175.3848">
	<stop  offset="0.1577" style="stop-color:#33C6F4"/>
	<stop  offset="1" style="stop-color:#3B55A5"/>
</linearGradient>
<path class="st1" d="M118.2,55l6.6,5.4c-1.7,2-3.6,3.6-5.9,4.7c-2.3,1.1-4.7,1.7-7.2,1.7c-2.3,0-4.4-0.4-6.4-1.3
	c-2-0.9-3.7-2.1-5.2-3.6c-1.5-1.5-2.6-3.3-3.5-5.2c-0.9-2-1.3-4.1-1.3-6.3c0-2.2,0.4-4.4,1.3-6.3c0.9-2,2-3.7,3.5-5.2
	c1.5-1.5,3.2-2.7,5.2-3.6c2-0.9,4.1-1.3,6.4-1.3c2.1,0,4.1,0.4,6,1.1c1.9,0.8,3.7,1.9,5.3,3.3l-6.4,5.6c-1.5-1.1-3.2-1.6-4.9-1.6
	c-1.1,0-2.2,0.2-3.1,0.6c-1,0.4-1.8,1-2.5,1.8c-0.7,0.7-1.2,1.6-1.6,2.6c-0.4,1-0.6,2-0.6,3.1c0,1.1,0.2,2.1,0.6,3.1
	c0.4,1,0.9,1.8,1.6,2.6c0.7,0.7,1.5,1.3,2.5,1.8c0.9,0.4,2,0.7,3.1,0.7c1.3,0,2.5-0.3,3.6-0.9C116.4,56.9,117.4,56.1,118.2,55z
	 M152.7,47.2c0.7,1.7,1.1,3.5,1.1,5.4s-0.4,3.7-1.1,5.4c-0.7,1.7-1.7,3.2-3,4.4c-1.3,1.3-2.8,2.2-4.5,3c-1.7,0.7-3.5,1.1-5.4,1.1
	c-1.9,0-3.7-0.4-5.4-1.1c-1.7-0.7-3.2-1.7-4.5-3c-1.3-1.3-2.3-2.7-3-4.4c-0.7-1.7-1.1-3.5-1.1-5.4s0.4-3.7,1.1-5.4
	c0.7-1.7,1.7-3.2,3-4.4c1.3-1.3,2.8-2.3,4.5-3c1.7-0.7,3.5-1.1,5.4-1.1c1.9,0,3.7,0.4,5.4,1.1c1.7,0.7,3.2,1.7,4.5,3
	C150.9,44,151.9,45.5,152.7,47.2z M146.2,52.6c0-0.9-0.2-1.8-0.5-2.6c-0.3-0.8-0.8-1.5-1.3-2.1s-1.2-1.1-2-1.5
	c-0.8-0.4-1.6-0.5-2.5-0.5c-0.9,0-1.7,0.2-2.5,0.5c-0.8,0.4-1.5,0.8-2,1.5s-1,1.3-1.4,2.1c-0.3,0.8-0.5,1.7-0.5,2.6s0.2,1.8,0.5,2.6
	c0.3,0.8,0.8,1.5,1.4,2.2s1.2,1.1,2,1.5c0.8,0.4,1.6,0.5,2.5,0.5c0.9,0,1.7-0.2,2.5-0.5c0.8-0.4,1.5-0.9,2-1.5s1-1.3,1.3-2.2
	C146,54.4,146.2,53.5,146.2,52.6z M156.2,40.1v25.7h7.4v-9.2h12v-6.9h-12v-3.3h13.2v-6.9h-19.9L156.2,40.1z M181.5,40.1v25.7h7.4
	v-9.2h12v-6.9h-12v-3.3h13.2v-6.9h-19.9L181.5,40.1z M206.9,65.8h20.9v-6.6h-14v-3.2H227v-6.6h-13.2V46h14v-6.6h-20.9V65.8z
	 M233.6,65.8h20.9v-6.6h-14v-3.2h13.2v-6.6h-13.2V46h14v-6.6h-20.9V65.8z M271.9,41.9l0.6,0.6h8.5v23.4h8.4V42.4h8.5l0.6-0.6v-7.1
	h-26.6V41.9z M302.4,65.8h7.7V39.4h-7.7V65.8z M334.7,39.9l-5.8,9.6l-5.8-9.6c-0.2-0.3-0.5-0.5-0.9-0.5h-6.6v26.4h7.4V53.5l4.8,7.9
	c0.1,0.2,0.3,0.4,0.5,0.4c0.2,0.1,0.4,0.1,0.5,0.1c0.2,0,0.3,0,0.6-0.1c0.2-0.1,0.4-0.2,0.5-0.4l4.8-7.9v12.3h7.4V39.4h-6.6
	C335.1,39.4,334.9,39.6,334.7,39.9z M369.2,46v-6.6h-20.9v26.4h20.9v-6.6h-14v-3.2h13.2v-6.6h-13.2V46H369.2z"/>
</svg>
