<svg id="Layer_1" data-name="Layer 1" xmlns="http://www.w3.org/2000/svg" xmlns:xlink="http://www.w3.org/1999/xlink" viewBox="0 0 70.5 77.07"><defs><style>.cls-1{fill:url(#linear-gradient);}</style><linearGradient id="linear-gradient" x1="363.56" y1="175.05" x2="269.47" y2="233.46" gradientUnits="userSpaceOnUse"><stop offset="0.16" stop-color="#33c6f4"/><stop offset="1" stop-color="#3b55a5"/></linearGradient></defs><title>logo</title><path class="cls-1" d="M354.82,223.5a2.12,2.12,0,0,1-2.12,2.12h-3.3l-.05.13a6.87,6.87,0,0,1-6.33,4.2H305.26a6.87,6.87,0,0,1-6.33-4.2l-.05-.13h-3.3a2.12,2.12,0,1,1,0-4.24H352.7A2.12,2.12,0,0,1,354.82,223.5ZM287,207.59c-3.78-5.6-3.54-12.38.54-15.12,2.55-1.72,6-1.46,9.16.36a33.63,33.63,0,0,1,.79-5.29h54.56a32.56,32.56,0,0,1-6.23,29.09v2.51H304.4v-2.51a24.16,24.16,0,0,1-3.18-3.85C297.13,215.5,290.78,213.19,287,207.59Zm11.85,1.65.3-.22a32,32,0,0,1-2.56-12.36c-2.23-1.57-4.82-1.93-6.67-.68-2.66,1.79-2.82,6.22-.35,9.88S296.19,211,298.86,209.24Zm29.23-35.31a14.74,14.74,0,0,1,2.51,3,4.14,4.14,0,0,1,.09,4.42c-.17.22-.25.35-.25.35h.43c2.3.19,3.92-3,4.13-4.83a10.52,10.52,0,0,0-1.55-6.15c-1-1.88-2.4-3.57-3.53-5.39a12.51,12.51,0,0,1-2.16-6,11.9,11.9,0,0,1,1.71-6.12l.2-.38-.43,0c-2.86.29-5.39,2.79-6.47,5.32a11.13,11.13,0,0,0-.06,8.2C323.79,169.33,325.92,171.71,328.09,173.93ZM317,176.56a9.78,9.78,0,0,1,1.66,2,2.75,2.75,0,0,1,.06,2.93l-.17.23h.28c1.53.13,2.6-2,2.74-3.21a7,7,0,0,0-1-4.08c-.69-1.25-1.59-2.37-2.35-3.58a8.3,8.3,0,0,1-1.43-4,7.9,7.9,0,0,1,1.13-4.06l.13-.25-.28,0a5.78,5.78,0,0,0-4.29,3.53,7.39,7.39,0,0,0,0,5.44A14.9,14.9,0,0,0,317,176.56Z" transform="translate(-284.32 -152.86)"/></svg>
