<svg id="Layer_1" data-name="Layer 1" xmlns="http://www.w3.org/2000/svg" xmlns:xlink="http://www.w3.org/1999/xlink" viewBox="0 0 363.91 77.07"><defs><style>.cls-1{fill:url(#linear-gradient);}.cls-2{fill:url(#linear-gradient-2);}</style><linearGradient id="linear-gradient" x1="142.56" y1="61.05" x2="48.47" y2="119.46" gradientUnits="userSpaceOnUse"><stop offset="0.16" stop-color="#33c6f4"/><stop offset="1" stop-color="#3b55a5"/></linearGradient><linearGradient id="linear-gradient-2" x1="470.11" y1="26.38" x2="-80.89" y2="209.38" xlink:href="#linear-gradient"/></defs><title>logo</title><path class="cls-1" d="M133.82,109.5a2.12,2.12,0,0,1-2.12,2.12h-3.3l-.05.13a6.87,6.87,0,0,1-6.33,4.2H84.26a6.87,6.87,0,0,1-6.33-4.2l-.05-.13h-3.3a2.12,2.12,0,1,1,0-4.24H131.7A2.12,2.12,0,0,1,133.82,109.5ZM66,93.59c-3.78-5.6-3.54-12.38.54-15.12,2.55-1.72,6-1.46,9.16.36a33.63,33.63,0,0,1,.79-5.29h54.56a32.56,32.56,0,0,1-6.23,29.09v2.51H83.4v-2.51a24.16,24.16,0,0,1-3.18-3.85C76.13,101.5,69.78,99.19,66,93.59Zm11.85,1.65.3-.22a32,32,0,0,1-2.56-12.36c-2.23-1.57-4.82-1.93-6.67-.68-2.66,1.79-2.82,6.22-.35,9.88S75.19,97,77.86,95.24Zm29.23-35.31a14.74,14.74,0,0,1,2.51,3,4.14,4.14,0,0,1,.09,4.42c-.17.22-.25.35-.25.35h.43c2.3.19,3.92-3,4.13-4.83a10.52,10.52,0,0,0-1.55-6.15c-1-1.88-2.4-3.57-3.53-5.39a12.51,12.51,0,0,1-2.16-6,11.9,11.9,0,0,1,1.71-6.12l.2-.38-.43,0c-2.86.29-5.39,2.79-6.47,5.32a11.13,11.13,0,0,0-.06,8.2C102.79,55.33,104.92,57.71,107.09,59.93ZM96,62.56a9.78,9.78,0,0,1,1.66,2,2.75,2.75,0,0,1,.06,2.93l-.17.23h.28c1.53.13,2.6-2,2.74-3.21a7,7,0,0,0-1-4.08c-.69-1.25-1.59-2.37-2.35-3.58a8.3,8.3,0,0,1-1.43-4,7.9,7.9,0,0,1,1.13-4.06l.13-.25-.28,0a5.78,5.78,0,0,0-4.29,3.53,7.39,7.39,0,0,0,0,5.44A14.9,14.9,0,0,0,96,62.56Z" transform="translate(-63.32 -38.86)"/><path class="cls-2" d="M176.24,89l6.6,5.36a17.4,17.4,0,0,1-5.86,4.7,16.17,16.17,0,0,1-7.22,1.66,15.88,15.88,0,0,1-6.42-1.3,16.4,16.4,0,0,1-5.2-3.56,16.94,16.94,0,0,1-3.5-5.24,16.34,16.34,0,0,1,0-12.68,17,17,0,0,1,3.5-5.24,16.42,16.42,0,0,1,5.2-3.56,15.88,15.88,0,0,1,6.42-1.3,16.15,16.15,0,0,1,6,1.14,18,18,0,0,1,5.32,3.3l-6.4,5.6a8.32,8.32,0,0,0-4.88-1.64,7.6,7.6,0,0,0-3.12.64,7.51,7.51,0,0,0-2.48,1.76,8.52,8.52,0,0,0-1.64,2.58,8,8,0,0,0-.6,3.06,8.08,8.08,0,0,0,.6,3.1A8.24,8.24,0,0,0,164.2,90a8,8,0,0,0,2.46,1.76,7.27,7.27,0,0,0,3.1.66,7.53,7.53,0,0,0,3.58-.88A9,9,0,0,0,176.24,89Zm34.42-7.84a14,14,0,0,1,0,10.88,13.88,13.88,0,0,1-3,4.44,14.29,14.29,0,0,1-4.46,3,14,14,0,0,1-10.88,0,14.27,14.27,0,0,1-4.46-3,13.88,13.88,0,0,1-3-4.44,13.62,13.62,0,0,1-1.1-5.44,13.47,13.47,0,0,1,1.1-5.42,14,14,0,0,1,7.46-7.44,14,14,0,0,1,10.88,0,14.32,14.32,0,0,1,4.46,3A13.89,13.89,0,0,1,210.66,81.19Zm-6.5,5.42a7,7,0,0,0-.48-2.57,6.67,6.67,0,0,0-1.34-2.13,6.39,6.39,0,0,0-2-1.46,6.22,6.22,0,0,0-5.06,0,6.38,6.38,0,0,0-2,1.46A6.94,6.94,0,0,0,191.85,84a6.89,6.89,0,0,0,0,5.14,7.21,7.21,0,0,0,1.36,2.15,6.23,6.23,0,0,0,2,1.48,6.23,6.23,0,0,0,5.06,0,6.25,6.25,0,0,0,2-1.48,7,7,0,0,0,1.81-4.73Zm10-12.5V99.79h7.36v-9.2h12V83.67h-12V80.35H234.8V73.43H214.88Zm25.32,0V99.79h7.36v-9.2h12V83.67h-12V80.35h13.24V73.43H240.19Zm25.36,25.68h20.92V93.15h-14V89.91H285V83.27h-13.2V80h14v-6.6H264.87Zm26.68,0h20.92V93.15h-14V89.91h13.2V83.27h-13.2V80h14v-6.6H291.55Zm38.32-23.92.56.56H339V99.79h8.44V76.43h8.52l.56-.56V68.75h-26.6Zm30.48,23.92h7.72V73.43h-7.72Zm32.32-25.88-5.8,9.6-5.76-9.6a1.07,1.07,0,0,0-.88-.48h-6.64V99.79H381V87.47l4.8,7.92a.93.93,0,0,0,.52.42,1.82,1.82,0,0,0,.52.1,1.88,1.88,0,0,0,.56-.1.94.94,0,0,0,.52-.42l4.8-7.92V99.79h7.4V73.43h-6.64A.91.91,0,0,0,392.67,73.91ZM427.23,80v-6.6H406.31V99.79h20.92V93.15h-14V89.91h13.2V83.27h-13.2V80Z" transform="translate(-63.32 -38.86)"/></svg>